PathFileType	4	(X/Y/Z)	C:/Users/dbak576/Desktop/Duncan Bakke Modelling Files/H22s1/Static_H22s1.trc	
DataRate	CameraRate	NumFrames	NumMarkers	Units	OrigDataRate	OrigDataStartFrame	OrigNumFrames	
200.00	200.00	2	240	mm	200.00	288	37	
Frame#	Time	LFEO			LFEA			LFEL			LFEP			LTIO			LTIA			LTIL			LTIP			PELO			PELA			PELL			PELP			RFEO			RFEA			RFEL			RFEP			RTIO			RTIA			RTIL			RTIP			LFHD			RFHD			LBHD			RBHD			C7			T10			CLAV			STRN			RBack			LASI			RASI			LPSI			RPSI			RACR1			RUA1			RElbow			RElbowM			RFA1			RWRR			RWRU			RCAR			LACR1			LUA1			LElbow			LElbowM			LFA1			LWRR			LWRU			LCAR			RTH1			RTH3			RTH2			RTH4			RLFC			RMFC			RTB1			RTB3			RTB2			RTB4			RLMAL			RMMAL			RCAL			RMT1			RMT5			RToe			LTH1			LTH3			LTH2			LTH4			LLFC			LMFC			LTB1			LTB3			LTB2			LTB4			LLMAL			LMMAL			LCAL			LMT1			LMT5			LToe			CX			LAJC			LFEM1			LFEM10			LFEM11			LFEM12			LFEM13			LFEM14			LFEM15			LFEM16			LFEM2			LFEM3			LFEM4			LFEM5			LFEM6			LFEM7			LFEM8			LFEM9			LFOO1			LFOO2			LFOO3			LFOO4			LFOO5			LFOO6			LHJC			LIC			LIP			LIS			LIT			LKJC			LSI			LTIB1			LTIB10			LTIB11			LTIB12			LTIB13			LTIB14			LTIB15			LTIB16			LTIB2			LTIB3			LTIB4			LTIB5			LTIB6			LTIB7			LTIB8			LTIB9			LeftThighOrigin			LeftTibOrigin			LowerBodyModelVer			LowerTorsoOrigin			MidHJC			MidPelvis			OAnatomy			OCalRig			OHead			OLeftFemur			OLeftFoot			OLeftTibia			OPelvis			ORightFemur			ORightFoot			ORightTibia			OThorax			Oglobal			PELOrigin			RAJC			RFEM1			RFEM10			RFEM11			RFEM12			RFEM13			RFEM14			RFEM15			RFEM16			RFEM2			RFEM3			RFEM4			RFEM5			RFEM6			RFEM7			RFEM8			RFEM9			RFOO1			RFOO2			RFOO3			RFOO4			RFOO5			RFOO6			RHJC			RIC			RIP			RIS			RIT			RKJC			RSI			RTIB1			RTIB10			RTIB11			RTIB12			RTIB13			RTIB14			RTIB15			RTIB16			RTIB2			RTIB3			RTIB4			RTIB5			RTIB6			RTIB7			RTIB8			RTIB9			RightThighOrigin			RightTibOrigin			SACR			SP			ThoraxOrigin			XAnatomy			XCalRig			XHead			XLeftFemur			XLeftFoot			XLeftTibia			XPelvis			XRightFemur			XRightFoot			XRightTibia			XThorax			Xglobal			YAnatomy			YCalRig			YHead			YLeftFemur			YLeftFoot			YLeftTibia			YPelvis			YRightFemur			YRightFoot			YRightTibia			YThorax			Yglobal			ZAnatomy			ZCalRig			ZHead			ZLeftFemur			ZLeftFoot			ZLeftTibia			ZPelvis			ZRightFemur			ZRightFoot			ZRightTibia			ZThorax			Zglobal			avPEL			avTHOR			newLfootmid			newLfootside			newRfootmid			newRfootside			
		X1	Y1	Z1	X2	Y2	Z2	X3	Y3	Z3	X4	Y4	Z4	X5	Y5	Z5	X6	Y6	Z6	X7	Y7	Z7	X8	Y8	Z8	X9	Y9	Z9	X10	Y10	Z10	X11	Y11	Z11	X12	Y12	Z12	X13	Y13	Z13	X14	Y14	Z14	X15	Y15	Z15	X16	Y16	Z16	X17	Y17	Z17	X18	Y18	Z18	X19	Y19	Z19	X20	Y20	Z20	X21	Y21	Z21	X22	Y22	Z22	X23	Y23	Z23	X24	Y24	Z24	X25	Y25	Z25	X26	Y26	Z26	X27	Y27	Z27	X28	Y28	Z28	X29	Y29	Z29	X30	Y30	Z30	X31	Y31	Z31	X32	Y32	Z32	X33	Y33	Z33	X34	Y34	Z34	X35	Y35	Z35	X36	Y36	Z36	X37	Y37	Z37	X38	Y38	Z38	X39	Y39	Z39	X40	Y40	Z40	X41	Y41	Z41	X42	Y42	Z42	X43	Y43	Z43	X44	Y44	Z44	X45	Y45	Z45	X46	Y46	Z46	X47	Y47	Z47	X48	Y48	Z48	X49	Y49	Z49	X50	Y50	Z50	X51	Y51	Z51	X52	Y52	Z52	X53	Y53	Z53	X54	Y54	Z54	X55	Y55	Z55	X56	Y56	Z56	X57	Y57	Z57	X58	Y58	Z58	X59	Y59	Z59	X60	Y60	Z60	X61	Y61	Z61	X62	Y62	Z62	X63	Y63	Z63	X64	Y64	Z64	X65	Y65	Z65	X66	Y66	Z66	X67	Y67	Z67	X68	Y68	Z68	X69	Y69	Z69	X70	Y70	Z70	X71	Y71	Z71	X72	Y72	Z72	X73	Y73	Z73	X74	Y74	Z74	X75	Y75	Z75	X76	Y76	Z76	X77	Y77	Z77	X78	Y78	Z78	X79	Y79	Z79	X80	Y80	Z80	X81	Y81	Z81	X82	Y82	Z82	X83	Y83	Z83	X84	Y84	Z84	X85	Y85	Z85	X86	Y86	Z86	X87	Y87	Z87	X88	Y88	Z88	X89	Y89	Z89	X90	Y90	Z90	X91	Y91	Z91	X92	Y92	Z92	X93	Y93	Z93	X94	Y94	Z94	X95	Y95	Z95	X96	Y96	Z96	X97	Y97	Z97	X98	Y98	Z98	X99	Y99	Z99	X100	Y100	Z100	X101	Y101	Z101	X102	Y102	Z102	X103	Y103	Z103	X104	Y104	Z104	X105	Y105	Z105	X106	Y106	Z106	X107	Y107	Z107	X108	Y108	Z108	X109	Y109	Z109	X110	Y110	Z110	X111	Y111	Z111	X112	Y112	Z112	X113	Y113	Z113	X114	Y114	Z114	X115	Y115	Z115	X116	Y116	Z116	X117	Y117	Z117	X118	Y118	Z118	X119	Y119	Z119	X120	Y120	Z120	X121	Y121	Z121	X122	Y122	Z122	X123	Y123	Z123	X124	Y124	Z124	X125	Y125	Z125	X126	Y126	Z126	X127	Y127	Z127	X128	Y128	Z128	X129	Y129	Z129	X130	Y130	Z130	X131	Y131	Z131	X132	Y132	Z132	X133	Y133	Z133	X134	Y134	Z134	X135	Y135	Z135	X136	Y136	Z136	X137	Y137	Z137	X138	Y138	Z138	X139	Y139	Z139	X140	Y140	Z140	X141	Y141	Z141	X142	Y142	Z142	X143	Y143	Z143	X144	Y144	Z144	X145	Y145	Z145	X146	Y146	Z146	X147	Y147	Z147	X148	Y148	Z148	X149	Y149	Z149	X150	Y150	Z150	X151	Y151	Z151	X152	Y152	Z152	X153	Y153	Z153	X154	Y154	Z154	X155	Y155	Z155	X156	Y156	Z156	X157	Y157	Z157	X158	Y158	Z158	X159	Y159	Z159	X160	Y160	Z160	X161	Y161	Z161	X162	Y162	Z162	X163	Y163	Z163	X164	Y164	Z164	X165	Y165	Z165	X166	Y166	Z166	X167	Y167	Z167	X168	Y168	Z168	X169	Y169	Z169	X170	Y170	Z170	X171	Y171	Z171	X172	Y172	Z172	X173	Y173	Z173	X174	Y174	Z174	X175	Y175	Z175	X176	Y176	Z176	X177	Y177	Z177	X178	Y178	Z178	X179	Y179	Z179	X180	Y180	Z180	X181	Y181	Z181	X182	Y182	Z182	X183	Y183	Z183	X184	Y184	Z184	X185	Y185	Z185	X186	Y186	Z186	X187	Y187	Z187	X188	Y188	Z188	X189	Y189	Z189	X190	Y190	Z190	X191	Y191	Z191	X192	Y192	Z192	X193	Y193	Z193	X194	Y194	Z194	X195	Y195	Z195	X196	Y196	Z196	X197	Y197	Z197	X198	Y198	Z198	X199	Y199	Z199	X200	Y200	Z200	X201	Y201	Z201	X202	Y202	Z202	X203	Y203	Z203	X204	Y204	Z204	X205	Y205	Z205	X206	Y206	Z206	X207	Y207	Z207	X208	Y208	Z208	X209	Y209	Z209	X210	Y210	Z210	X211	Y211	Z211	X212	Y212	Z212	X213	Y213	Z213	X214	Y214	Z214	X215	Y215	Z215	X216	Y216	Z216	X217	Y217	Z217	X218	Y218	Z218	X219	Y219	Z219	X220	Y220	Z220	X221	Y221	Z221	X222	Y222	Z222	X223	Y223	Z223	X224	Y224	Z224	X225	Y225	Z225	X226	Y226	Z226	X227	Y227	Z227	X228	Y228	Z228	X229	Y229	Z229	X230	Y230	Z230	X231	Y231	Z231	X232	Y232	Z232	X233	Y233	Z233	X234	Y234	Z234	X235	Y235	Z235	X236	Y236	Z236	X237	Y237	Z237	X238	Y238	Z238	X239	Y239	Z239	X240	Y240	Z240	

33	0.160	-97.05214	-462.29630	458.04636	221.09984	-462.41806	449.37216	-97.17850	-144.15622	448.94580	-88.37802	-453.19568	776.06812	-156.27135	-481.15994	71.62836	192.93584	-481.79285	25.59992	-164.78587	-123.99115	2.11954	-109.47237	-411.13464	425.71851	-6.69009	-370.65680	882.42889	231.55777	-370.72070	881.65356	-6.63907	-172.11702	881.73871	-6.04380	-369.96680	1080.96765	122.57731	-459.74667	457.59607	456.64423	-459.72635	457.98682	122.55647	-125.67981	458.03009	122.18658	-460.18069	791.66266	172.85464	-462.59641	68.76817	533.66589	-462.51981	121.27553	165.95372	-101.07849	115.66138	120.80270	-509.99460	426.51917	-50.92355	-419.13287	1531.54675	26.80195	-419.35098	1535.54565	-82.08968	-582.94110	1481.92871	40.86388	-590.74707	1479.63293	-14.21544	-574.70490	1345.68201	-7.30364	-565.20862	1081.35706	-12.23595	-433.36472	1298.24609	-12.99764	-360.20465	1196.24182	132.58669	-561.27386	1257.85706	-161.01649	-381.27557	871.03809	147.63632	-360.03796	893.81964	-37.27575	-579.01123	898.58783	57.42115	-582.79840	901.46185	121.71992	-484.10208	1325.91113	257.41879	-431.15482	1310.56226	382.02374	-372.58978	1277.38611	356.74194	-288.90009	1231.34143	484.32782	-306.91339	1265.74255	568.21375	-243.69946	1349.00305	577.15778	-228.78380	1277.98999	624.28638	-235.31369	1315.06201	-164.96770	-481.97641	1312.90283	-292.67175	-397.55374	1275.80322	-364.96042	-309.48730	1243.08398	-335.70145	-254.78925	1214.73267	-463.60840	-239.65732	1253.27002	-549.65631	-138.92899	1324.67993	-558.17047	-150.89842	1252.92798	-605.62195	-129.81807	1291.17041	230.81415	-440.16086	744.53882	203.08298	-459.02847	561.92474	186.17122	-379.42743	655.18555	215.93956	-450.14072	656.29773	200.28711	-451.24646	465.52118	44.86749	-468.24680	449.67090	138.83379	-427.44971	332.64124	165.80617	-430.31094	149.10263	219.17616	-463.67209	251.32544	154.64844	-434.97067	240.81226	216.33482	-467.08859	70.12494	137.09868	-458.90729	68.49513	191.69839	-521.70721	40.39467	164.60327	-365.13919	45.97551	220.19008	-387.82053	37.14712	176.03108	-306.76776	27.68026	-200.60573	-413.09042	759.17188	-174.67302	-425.65976	570.84705	-145.24466	-355.53665	669.92578	-187.91328	-415.81750	665.32178	-177.25668	-466.04489	466.25650	-16.84759	-458.54770	449.83612	-123.57796	-430.12180	347.47534	-140.66286	-441.24951	166.19112	-194.02571	-478.88211	265.91281	-130.87282	-444.45596	256.51123	-188.69264	-494.13153	71.30546	-116.66874	-465.29971	70.78896	-147.73067	-532.93353	33.71679	-150.30463	-377.89795	51.06493	-204.23778	-404.17801	33.91941	-159.34186	-321.37299	25.09558	18.80731	-612.82220	762.73431	-152.68069	-479.71564	71.04721	-92.93599	-451.46777	776.16931	-86.98534	-461.30286	496.09235	-96.06273	-471.29599	496.35889	-106.05766	-462.21667	496.37021	-97.81675	-446.40259	457.83362	-71.62239	-461.07788	457.67581	-95.16915	-493.72604	483.92834	-119.30317	-463.36240	458.37051	-89.53986	-457.76239	769.84393	-92.32430	-464.18274	776.33948	-95.72042	-457.88815	782.66486	-106.37865	-449.47949	734.94501	-96.38372	-458.55881	734.93365	-105.46111	-468.55194	735.20020	-124.68266	-459.61655	757.62506	-96.98026	-452.22354	496.10367	-123.00101	-319.33282	17.16199	-211.58623	-382.95856	-13.37778	-154.72714	-547.37927	-17.63401	-111.19666	-539.07990	-5.29634	-156.07199	-553.51117	76.98940	-165.43034	-508.55905	79.76942	-92.63014	-457.82526	776.25439	-118.47837	-505.58823	938.64392	-72.43024	-466.78824	806.63678	-166.31325	-420.37793	873.64478	-68.03416	-463.84595	744.33411	-97.05214	-462.29630	458.04633	-28.33473	-643.31140	901.81464	-109.79735	-433.57901	450.67017	-130.78300	-471.89877	146.70360	-137.19273	-487.13138	148.31059	-163.09892	-484.89771	151.93390	-161.65865	-441.64160	110.20191	-114.54897	-464.57559	80.71574	-139.84743	-496.13974	109.51972	-188.58727	-494.15887	76.85865	-55.32924	-462.38589	452.05295	-91.23582	-476.82913	457.86438	-127.14240	-491.27237	463.67584	-112.54009	-454.88052	380.78293	-97.40588	-461.44717	378.90305	-103.81561	-476.67978	380.51004	-126.13113	-473.00177	383.55222	-145.91722	-465.33212	148.58347	-173.50780	-398.09561	666.64825	-152.75551	-450.08447	259.85974	24.00000	2.00000	2006.00000	1.69131	-475.78079	891.22687	6.13876	-451.02924	783.54449	1.69131	-475.78079	891.22687	0.00000	0.00000	0.00000	0.00000	0.00000	0.00000	-16.33685	-503.04300	1507.16357	-97.05214	-462.29630	458.04633	-147.73067	-532.93353	33.71679	-152.68069	-479.71564	71.04721	-6.69009	-370.65677	882.42883	122.57730	-459.74664	457.59604	191.69839	-521.70721	40.39467	176.71675	-462.99792	69.31004	-13.22569	-504.03479	1321.96411	0.00000	0.00000	0.00000	-6.69009	-370.65677	882.42883	176.71675	-462.99792	69.31004	104.21697	-437.59665	790.48901	110.50272	-458.94589	497.10623	121.49297	-467.83984	498.10303	130.41115	-456.82413	498.06308	120.85059	-443.15524	456.73209	96.03272	-462.57562	456.32025	124.61716	-491.68832	485.98300	145.80380	-457.27124	458.71237	101.94298	-444.89709	784.01038	105.59834	-450.86975	791.18018	101.23619	-444.27655	797.33990	119.44097	-434.88062	747.63312	110.52278	-445.89633	747.67303	121.51302	-454.79028	748.66986	139.14854	-441.62775	772.43506	119.42091	-447.93018	497.06631	128.79811	-318.38098	5.39167	230.85078	-364.74316	-10.85796	207.29388	-537.15466	-8.71472	161.83885	-536.99280	-1.65689	198.67882	-537.87189	85.72185	198.89998	-491.87390	86.09136	104.90766	-444.23318	790.83459	113.01124	-489.66000	955.73010	81.89616	-456.16943	818.02759	157.77220	-398.07843	897.56537	86.29225	-453.22714	755.72485	122.57730	-459.74664	457.59604	48.82847	-638.00201	907.51007	126.87754	-428.61322	450.01770	154.30252	-461.14304	145.34164	164.68231	-474.04709	146.89697	189.06154	-464.75696	150.21841	175.32462	-423.67477	108.37286	135.93005	-458.85239	79.42284	169.29190	-482.17181	108.02153	215.33788	-467.01343	74.72868	82.34745	-471.33035	452.08371	120.96857	-475.34586	457.50235	159.58969	-479.36133	462.92099	134.61172	-448.69748	380.00909	121.81886	-459.19223	378.31323	132.19864	-472.09631	379.86856	152.71574	-462.40463	382.64816	167.09540	-450.64825	147.03751	206.68945	-426.20560	653.88306	174.60538	-440.47757	244.35643	10.07270	-580.90479	900.02484	4.87948	-418.17563	769.97858	-13.22569	-504.03479	1321.96411	-80.00000	0.00000	0.00000	-80.00000	0.00000	0.00000	-19.18272	-579.30872	1483.17517	-100.89597	-382.39584	456.97708	-227.73067	-532.93353	33.71679	-182.40398	-405.44812	71.97686	-11.68177	-291.08200	875.87616	114.30727	-380.28290	453.45822	111.69839	-521.70721	40.39467	184.92337	-383.42142	69.78796	-13.21175	-424.20639	1327.20081	200.00000	0.00000	0.00000	0.00000	0.00000	80.00000	0.00000	0.00000	80.00000	-17.94193	-526.98724	1583.47925	-95.94063	-461.17245	538.03070	-147.73067	-532.93353	113.71679	-141.30949	-476.15488	150.15485	-12.98239	-364.50375	961.94330	118.34590	-456.03159	537.39764	191.69839	-521.70721	120.39467	165.66945	-462.33450	148.54082	-15.98861	-509.26801	1401.74487	0.00000	200.00000	0.00000	0.00000	80.00000	0.00000	0.00000	80.00000	0.00000	-96.27010	-499.84689	1506.48511	-17.15227	-458.46808	456.88220	-147.73067	-452.93353	33.71679	-79.28299	-450.19174	59.16787	72.90571	-365.17999	888.30377	202.03610	-451.27826	461.41504	191.69839	-441.70721	40.39467	255.52417	-471.19165	80.36691	66.72658	-504.22955	1324.72009	0.00000	0.00000	200.00000	-0.10099	0.10015	0.07719	0.06180	-0.06848	-0.00765	-247.73067	-532.93353	33.71679	-147.73067	-432.93353	33.71679	91.69839	-521.70721	40.39467	191.69839	-421.70721	40.39467 
34	0.165	-96.98967	-462.27383	458.02188	221.20363	-462.39468	449.41513	-97.11303	-144.09229	448.99280	-88.38297	-453.24472	776.08704	-156.27968	-481.17758	71.63612	192.90007	-481.81512	25.53179	-164.81976	-124.04886	2.01785	-109.40559	-411.04056	425.67590	-6.69618	-370.65088	882.42780	231.52364	-370.71594	881.63898	-6.64429	-172.13452	881.72565	-6.03864	-369.94891	1080.94299	122.59827	-459.73318	457.59982	456.67007	-459.70963	458.05295	122.57404	-125.66144	458.10303	122.14519	-460.23645	791.67126	172.85777	-462.61584	68.76732	533.67743	-462.53546	121.23338	165.96495	-101.08978	115.61673	120.84641	-509.96954	426.53253	-50.93206	-419.17255	1531.55933	26.81593	-419.37970	1535.54993	-82.11293	-582.95569	1481.93237	40.85011	-590.77557	1479.63086	-14.19569	-574.71735	1345.67920	-7.30960	-565.24603	1081.35608	-12.23051	-433.38815	1298.24548	-12.96208	-360.22385	1196.25867	132.57140	-561.28839	1257.84814	-161.00597	-381.25253	871.04431	147.61360	-360.04919	893.81128	-37.29526	-579.01837	898.59253	57.40710	-582.81183	901.46362	121.72517	-484.11734	1325.90771	257.41611	-431.15512	1310.55444	382.03229	-372.60397	1277.38708	356.75232	-288.91812	1231.31946	484.32941	-306.91559	1265.73865	568.23950	-243.68221	1348.98340	577.15631	-228.77327	1277.97009	624.28650	-235.29243	1315.03308	-164.97525	-482.01663	1312.92200	-292.64529	-397.55325	1275.80884	-364.93509	-309.49579	1243.09705	-335.71030	-254.79100	1214.75891	-463.63107	-239.71535	1253.32336	-549.65936	-138.99924	1324.73523	-558.16919	-150.92963	1252.96399	-605.66418	-129.84465	1291.20630	230.81120	-440.16980	744.54004	203.07129	-459.02628	561.92297	186.30431	-379.41312	655.38220	215.92802	-450.12939	656.29205	200.33177	-451.24936	465.54321	44.86475	-468.21695	449.65634	139.30540	-426.73206	332.90326	165.82773	-430.28909	149.12370	219.16295	-463.68112	251.32751	154.65228	-434.96240	240.80048	216.33728	-467.11462	70.09783	137.10245	-458.92123	68.52022	191.68608	-521.65656	40.42146	164.61174	-365.14069	45.96180	220.19128	-387.83090	37.14285	176.22667	-306.68805	27.64695	-200.61551	-413.07767	759.17218	-174.68761	-425.65002	570.84912	-145.23085	-355.50562	669.92914	-187.91479	-415.78491	665.31506	-177.26057	-466.01834	466.24857	-16.71875	-458.52924	449.79514	-123.57703	-430.09570	347.46268	-140.65140	-441.24323	166.18709	-194.03688	-478.87033	265.90646	-130.86783	-444.45386	256.50986	-188.72224	-494.15643	71.32878	-116.65627	-465.31052	70.77956	-147.90956	-533.09723	33.85122	-150.30490	-377.89740	51.06121	-204.21664	-404.16489	33.92960	-159.33844	-321.36578	25.09332	18.76853	-612.79211	762.74982	-152.68925	-479.73346	71.05417	-92.94447	-451.44424	776.18518	-86.93019	-461.28107	496.07489	-96.00960	-471.27469	496.33942	-106.00500	-462.19342	496.34845	-97.75300	-446.37805	457.80896	-71.55657	-461.05734	457.65707	-95.11494	-493.70758	483.90753	-119.24361	-463.33820	458.34103	-89.54700	-457.73990	769.85980	-92.33379	-464.16083	776.35553	-95.73125	-457.86517	782.68091	-106.37925	-449.45459	734.95270	-96.38383	-458.53586	734.94366	-105.46324	-468.52948	735.20819	-124.69152	-459.59137	757.63141	-96.92560	-452.19980	496.08392	-122.87270	-319.43185	17.11870	-211.54462	-382.94995	-13.39342	-154.93512	-547.46106	-17.48169	-111.39619	-539.21692	-5.13683	-156.32117	-553.50519	77.14678	-165.61183	-508.53635	79.88297	-92.63913	-457.80255	776.27039	-118.48323	-505.55402	938.64240	-72.44145	-466.76526	806.64850	-166.30606	-420.34970	873.65143	-68.04792	-463.82465	744.35291	-96.98966	-462.27380	458.02185	-28.36590	-643.27087	901.81598	-109.73464	-433.55829	450.64526	-130.77806	-471.90933	146.70184	-137.18771	-487.14081	148.31166	-163.09187	-484.90591	151.93944	-161.65804	-441.65665	110.20440	-114.55704	-464.59445	80.71332	-139.84993	-496.15295	109.52421	-188.59348	-494.17410	76.87373	-55.26994	-462.36551	452.02090	-91.17416	-476.80615	457.84045	-127.07839	-491.24677	463.66003	-112.49120	-454.86646	380.76434	-97.35831	-461.43353	378.88245	-103.76796	-476.66498	380.49228	-126.08170	-472.98605	383.53809	-145.91095	-465.34229	148.58374	-173.51132	-398.07776	666.65015	-152.75510	-450.06976	259.85208	24.00000	2.00000	2006.00000	1.67987	-475.78299	891.22791	6.11913	-451.01749	783.55579	1.67987	-475.78299	891.22791	0.00000	0.00000	0.00000	0.00000	0.00000	0.00000	-16.34474	-503.07086	1507.16809	-96.98966	-462.27380	458.02185	-147.90956	-533.09723	33.85122	-152.68925	-479.73346	71.05417	-6.69618	-370.65088	882.42780	122.59827	-459.73315	457.59979	191.68608	-521.65656	40.42146	176.71986	-463.01794	69.30903	-13.21310	-504.05273	1321.96240	0.00000	0.00000	0.00000	-6.69618	-370.65088	882.42780	176.71986	-463.01794	69.30903	104.18834	-437.59558	790.49585	110.51722	-458.93155	497.10864	121.50533	-467.82831	498.10678	130.42630	-456.81458	498.06888	120.87564	-443.14105	456.73639	96.05283	-462.55579	456.31946	124.62584	-491.67728	485.98587	145.82552	-457.26337	458.72006	101.91363	-444.89526	784.01636	105.56644	-450.86923	791.18658	101.20480	-444.27521	797.34601	119.42025	-434.88095	747.64197	110.49928	-445.89468	747.67987	121.48740	-454.79144	748.67804	139.12244	-441.63419	772.44714	119.43819	-447.91782	497.07071	128.81198	-318.38806	5.36494	230.86000	-364.76648	-10.86764	207.28221	-537.17462	-8.68373	161.82678	-537.00555	-1.62851	198.66171	-537.86780	85.75253	198.88840	-491.86975	86.11084	104.87740	-444.23242	790.84125	112.98145	-489.65152	955.71759	81.86833	-456.16360	818.03198	157.74448	-398.08618	897.55676	86.26186	-453.22296	755.73639	122.59827	-459.73315	457.59979	48.78899	-637.97003	907.50769	126.90309	-428.60071	450.01920	154.30925	-461.15460	145.34203	164.68715	-474.06027	146.89772	189.06813	-464.77371	150.21748	175.33571	-423.69177	108.36964	135.93402	-458.86530	79.42348	169.29370	-482.18829	108.02233	215.34085	-467.03918	74.72620	82.36608	-471.31097	452.09000	120.98706	-475.33221	457.50717	159.60805	-479.35349	462.92435	134.63098	-448.69080	380.01108	121.83629	-459.18375	378.31647	132.21419	-472.08942	379.87216	152.73308	-462.40073	382.65021	167.10394	-450.66168	147.03664	206.72893	-426.20306	653.94843	174.76537	-440.23410	244.45149	10.05592	-580.91510	900.02808	4.86285	-418.16693	769.99097	-13.21310	-504.05273	1321.96240	-80.00000	0.00000	0.00000	-80.00000	0.00000	0.00000	-19.19286	-579.33502	1483.17505	-100.82662	-382.37302	456.95172	-227.90956	-533.09723	33.85122	-182.40977	-405.46484	71.98116	-11.67984	-291.07565	875.87415	114.34795	-380.26724	453.46469	111.68608	-521.65656	40.42146	184.93906	-383.44266	69.78148	-13.20567	-424.22452	1327.20190	200.00000	0.00000	0.00000	0.00000	0.00000	80.00000	0.00000	0.00000	80.00000	-17.94476	-527.02002	1583.48242	-95.89626	-461.15005	538.00647	-147.90956	-533.09723	113.85122	-141.30298	-476.16431	150.15926	-12.98486	-364.49609	961.94238	118.35466	-456.02121	537.40088	191.68608	-521.65656	120.42146	165.67628	-462.34766	148.54027	-15.97158	-509.28888	1401.74316	0.00000	200.00000	0.00000	0.00000	80.00000	0.00000	0.00000	80.00000	0.00000	-96.27802	-499.87411	1506.49548	-17.08921	-458.45218	456.87592	-147.90956	-453.09723	33.85122	-79.29277	-450.21350	59.15766	72.90040	-365.18228	888.29968	202.05847	-451.28400	461.43225	191.68608	-441.65656	40.42146	255.52649	-471.22336	80.36284	66.73933	-504.24081	1324.71436	0.00000	0.00000	200.00000	-0.10099	0.10015	0.07719	0.06180	-0.06848	-0.00765	-247.90956	-533.09723	33.85122	-147.90956	-433.09723	33.85122	91.68608	-521.65656	40.42146	191.68608	-421.65656	40.42146 
